<?xml version="1.0" standalone="no"?><!DOCTYPE svg PUBLIC "-//W3C//DTD SVG 1.1//EN" "http://www.w3.org/Graphics/SVG/1.1/DTD/svg11.dtd"><svg t="1642649345292" class="icon" viewBox="0 0 1024 1024" version="1.1" xmlns="http://www.w3.org/2000/svg" p-id="1145" xmlns:xlink="http://www.w3.org/1999/xlink"><defs><style type="text/css"></style></defs><path d="M512 767.52c-140.96 0-255.52-114.56-255.52-255.52S371.04 256.48 512 256.48 767.52 371.04 767.52 512 652.96 767.52 512 767.52z m0-450.88c-107.68 0-195.36 87.68-195.36 195.36S404.32 707.36 512 707.36 707.36 619.68 707.36 512 619.68 316.64 512 316.64zM512 1024c-16.64 0-30.08-13.44-30.08-30.08v-116c0-16.64 13.44-30.08 30.08-30.08s30.08 13.44 30.08 30.08v116c0 16.64-13.44 30.08-30.08 30.08zM512 176.32c-16.64 0-30.08-13.44-30.08-30.08V30.08C481.92 13.44 495.36 0 512 0s30.08 13.44 30.08 30.08v116c0 16.64-13.44 30.24-30.08 30.24zM852.8 882.88c-7.68 0-15.36-2.88-21.28-8.8l-82.08-82.08c-11.84-11.68-11.84-30.88 0-42.56 11.68-11.84 30.88-11.84 42.56 0l82.08 82.08c11.84 11.68 11.84 30.88 0 42.56-5.92 5.76-13.6 8.8-21.28 8.8zM253.28 283.52c-7.68 0-15.36-2.88-21.28-8.8l-82.08-82.08c-11.84-11.68-11.84-30.88 0-42.56 11.68-11.84 30.88-11.84 42.56 0l82.08 82.08c11.84 11.68 11.84 30.88 0 42.56-5.76 5.76-13.6 8.8-21.28 8.8zM993.92 542.08h-116.16c-16.64 0-30.08-13.44-30.08-30.08s13.44-30.08 30.08-30.08h116.16c16.64 0 30.08 13.44 30.08 30.08s-13.44 30.08-30.08 30.08zM146.24 542.08H30.08C13.44 542.08 0 528.64 0 512s13.44-30.08 30.08-30.08h116.16c16.64 0 30.08 13.44 30.08 30.08s-13.44 30.08-30.08 30.08zM770.72 283.52c-7.68 0-15.36-2.88-21.28-8.8-11.84-11.68-11.84-30.88 0-42.56l82.08-82.08c11.68-11.84 30.88-11.84 42.56 0 11.84 11.68 11.84 30.88 0 42.56l-82.08 82.08c-5.92 5.76-13.6 8.8-21.28 8.8zM171.2 882.88c-7.68 0-15.36-2.88-21.28-8.8-11.84-11.68-11.84-30.88 0-42.56l82.08-82.08c11.68-11.84 30.88-11.84 42.56 0 11.84 11.68 11.84 30.88 0 42.56l-82.08 82.08c-5.76 5.76-13.44 8.8-21.28 8.8z"></path></svg>